<svg width="18" height="10" viewBox="0 0 18 10" fill="none" xmlns="http://www.w3.org/2000/svg">
<path fill-rule="evenodd" clip-rule="evenodd" d="M17.8283 0.156592C17.9381 0.267778 17.9998 0.417786 17.9998 0.574093C17.9998 0.7304 17.9381 0.880407 17.8283 0.991592L9.40028 9.82059C9.35 9.87696 9.28837 9.92207 9.21944 9.95296C9.1505 9.98384 9.07582 9.99981 9.00028 9.99981C8.92475 9.99981 8.85006 9.98384 8.78113 9.95296C8.71219 9.92207 8.65056 9.87696 8.60028 9.82059L0.172285 1.02059C0.0630741 0.909137 0.00140568 0.759631 0.000284169 0.603592C0.000984172 0.447469 0.0627155 0.29781 0.172285 0.186592C0.222567 0.130221 0.284193 0.0851141 0.353128 0.0542289C0.422064 0.0233437 0.496748 0.00737776 0.572285 0.00737776C0.647821 0.00737776 0.722506 0.0233437 0.791441 0.0542289C0.860376 0.0851141 0.922003 0.130221 0.972284 0.186592L9.00128 8.53759L17.0303 0.154592C17.1394 0.0546521 17.2822 -0.000612781 17.4302 -0.000242315C17.5782 0.000128151 17.7206 0.0561068 17.8293 0.156592L17.8283 0.156592Z" fill="black"/>
</svg>
