<svg width="24" height="18" viewBox="0 0 24 18" fill="none" xmlns="http://www.w3.org/2000/svg">
<path fill-rule="evenodd" clip-rule="evenodd" d="M0.156837 0.171472C0.268022 0.0616099 0.41803 0 0.574337 0C0.730644 0 0.880652 0.0616099 0.991837 0.171472L9.82084 8.59947C9.87721 8.64975 9.92232 8.71138 9.9532 8.78032C9.98409 8.84925 10.0001 8.92394 10.0001 8.99947C10.0001 9.07501 9.98409 9.14969 9.9532 9.21863C9.92232 9.28756 9.87721 9.34919 9.82084 9.39947L1.02084 17.8275C0.909382 17.9367 0.759875 17.9983 0.603837 17.9995C0.447714 17.9988 0.298055 17.937 0.186837 17.8275C0.130466 17.7772 0.085359 17.7156 0.0544738 17.6466C0.0235886 17.5777 0.00762258 17.503 0.00762258 17.4275C0.00762258 17.3519 0.0235886 17.2772 0.0544738 17.2083C0.085359 17.1394 0.130466 17.0778 0.186837 17.0275L8.53784 8.99847L0.154837 0.969472C0.0548966 0.860313 -0.000368609 0.717581 1.85048e-06 0.569582C0.00037231 0.421584 0.0563514 0.279129 0.156837 0.170472V0.171472ZM14.1568 0.171472C14.268 0.0616099 14.418 0 14.5743 0C14.7306 0 14.8807 0.0616099 14.9918 0.171472L23.8208 8.59947C23.8772 8.64975 23.9223 8.71138 23.9532 8.78032C23.9841 8.84925 24.0001 8.92394 24.0001 8.99947C24.0001 9.07501 23.9841 9.14969 23.9532 9.21863C23.9223 9.28756 23.8772 9.34919 23.8208 9.39947L15.0208 17.8275C14.9094 17.9367 14.7599 17.9983 14.6038 17.9995C14.4477 17.9988 14.2981 17.937 14.1868 17.8275C14.1305 17.7772 14.0854 17.7156 14.0545 17.6466C14.0236 17.5777 14.0076 17.503 14.0076 17.4275C14.0076 17.3519 14.0236 17.2772 14.0545 17.2083C14.0854 17.1394 14.1305 17.0778 14.1868 17.0275L22.5378 8.99847L14.1548 0.969472C14.0549 0.860313 13.9996 0.717581 14 0.569582C14.0004 0.421584 14.0564 0.279129 14.1568 0.170472V0.171472Z" fill="black"/>
</svg>
